<svg aria-hidden="true" style="position: absolute; width: 0; height: 0; overflow: hidden;" version="1.1" xmlns="http://www.w3.org/2000/svg" xmlns:xlink="http://www.w3.org/1999/xlink">
  <defs>
    <symbol id="facebook" viewBox="0 0 32 32">
      <path d="M19.52 4.64h0.96v3.6h-1.2c-0.48 0-0.96 0-1.2 0.24s-0.24 0.48-0.24 1.040v1.28h2.64v3.040h-2.64v13.2h-4.080v-13.28h-2.16v-3.040h2.16v-1.040c0-1.76 0.24-3.040 0.72-3.6 0.72-1.040 2.16-1.52 4.32-1.52 0.24 0.080 0.48 0.080 0.72 0.080z"></path>
    </symbol>
    <symbol id="row" viewBox="0 0 32 32">
      <path stroke-linejoin="round" stroke-linecap="round" stroke-miterlimit="4" stroke-width="2.8571" d="M1.429 10.331h29.143M1.429 21.669h29.143"></path>
    </symbol>
    <symbol id="x" viewBox="0 0 32 32">
      <path stroke-linejoin="round" stroke-linecap="round" stroke-miterlimit="4" stroke-width="2.4" d="M24 8l-16 16M8 8l16 16"></path>
    </symbol>
    <symbol id="youtube" viewBox="0 0 32 32">
      <path d="M24.24 6c-1.36-0.080-4.16-0.16-8.4-0.16h-0.56c-4.080 0-6.8 0.080-8.16 0.24-1.84 0.16-3.12 0.64-3.84 1.28-0.64 0.56-1.12 1.6-1.28 2.96-0.080 0.88-0.16 2.72-0.16 5.52v0.4c0 2.64 0.080 4.48 0.24 5.36 0.24 1.28 0.64 2.24 1.44 2.8 0.8 0.64 2.16 1.040 4.080 1.2 1.36 0.080 4.16 0.16 8.4 0.16h0.56c4.080 0 6.8-0.080 8.16-0.24 1.84-0.16 3.12-0.64 3.84-1.28 0.64-0.56 1.12-1.6 1.28-2.96 0.080-0.88 0.16-2.72 0.16-5.52v-0.4c0-2.64-0.080-4.48-0.24-5.36-0.24-1.28-0.64-2.24-1.44-2.8-0.8-0.64-2.16-1.040-4.080-1.2zM21.12 15.84l-8.8 5.28v-10.56l8.8 5.28z"></path>
    </symbol>
    <symbol id="instagram" viewBox="0 0 32 32">
      <path d="M28.72 10.752c-0.015-1.131-0.231-2.206-0.613-3.199l0.021 0.063c-0.681-1.724-2.020-3.063-3.7-3.728l-0.044-0.015c-0.925-0.356-1.994-0.571-3.111-0.592l-0.009-0c-1.36-0.080-1.792-0.080-5.264-0.080-3.456 0-3.904 0-5.264 0.080-1.056 0.016-2.112 0.224-3.104 0.592-1.725 0.68-3.064 2.019-3.729 3.7l-0.015 0.044c-0.355 0.915-0.57 1.973-0.592 3.079l-0 0.009c-0.080 1.376-0.096 1.808-0.096 5.296 0 3.456 0 3.904 0.080 5.264 0.016 1.056 0.224 2.096 0.592 3.104 0.685 1.717 2.023 3.050 3.7 3.713l0.044 0.015c0.992 0.384 2.048 0.608 3.104 0.64 1.376 0.064 1.808 0.080 5.28 0.080s3.92 0 5.28-0.080c1.12-0.022 2.184-0.237 3.168-0.614l-0.064 0.022c1.724-0.681 3.063-2.020 3.729-3.7l0.015-0.044c0.368-0.992 0.576-2.032 0.592-3.104 0.064-1.36 0.080-1.792 0.080-5.264 0-3.456 0-3.904-0.080-5.264zM15.984 22.528c-3.623 0-6.56-2.937-6.56-6.56s2.937-6.56 6.56-6.56v0c3.623 0 6.56 2.937 6.56 6.56s-2.937 6.56-6.56 6.56v0zM22.816 10.688c-0.066 0.010-0.143 0.016-0.221 0.016-0.848 0-1.536-0.688-1.536-1.536s0.688-1.536 1.536-1.536c0.078 0 0.155 0.006 0.23 0.017l-0.008-0.001c0.748 0.112 1.315 0.75 1.315 1.52s-0.567 1.408-1.306 1.519l-0.008 0.001z"></path>
      <path d="M16 19.968c2.209 0 4-1.791 4-4s-1.791-4-4-4v0c-2.209 0-4 1.791-4 4s1.791 4 4 4v0z"></path>
    </symbol>
    <symbol id="mobile-row" viewBox="0 0 4464 32">
      <path stroke-linejoin="miter" stroke-linecap="butt" stroke-miterlimit="4" stroke-width="16" d="M0 16h4464"></path>
    </symbol>
    <symbol id="tablet-row" viewBox="0 0 9984 32">
      <path stroke-linejoin="miter" stroke-linecap="butt" stroke-miterlimit="4" stroke-width="16" d="M0 16h9984"></path>
    </symbol>
    <symbol id="desktop-row" viewBox="0 0 18176 32">
      <path stroke-linejoin="miter" stroke-linecap="butt" stroke-miterlimit="4" stroke-width="16" d="M0 16h18176"></path>
    </symbol>
    <symbol id="favicon" viewBox="0 0 32 32">
      <path fill="#3350e9" style="fill: var(--color1, #3350e9)" d="M16 2.909c7.23 0 13.091 5.861 13.091 13.091s-5.861 13.091-13.091 13.091c-7.23 0-13.091-5.861-13.091-13.091s5.861-13.091 13.091-13.091z"></path>
      <path fill="none" stroke="#3350e9" style="stroke: var(--color1, #3350e9)" stroke-linejoin="miter" stroke-linecap="butt" stroke-miterlimit="4" stroke-width="2.9091" d="M16 1.455c8.033 0 14.545 6.512 14.545 14.545s-6.512 14.545-14.545 14.545c-8.033 0-14.545-6.512-14.545-14.545s6.512-14.545 14.545-14.545z"></path>
      <path fill="#fbfbfb" style="fill: var(--color2, #fbfbfb)" d="M17.993 17.571l1.236-4.48h1.993l-2.313 7.273h-1.789l-1.338-4.407-1.338 4.407h-1.789l-2.313-7.273h1.993l1.236 4.465 1.324-4.465h1.775l1.324 4.48z"></path>
    </symbol>
  </defs>
</svg>